HIERARCHY
ROOT Hips
{
	OFFSET -240.519104 92.930817 402.348785
	CHANNELS 6 Xposition Yposition Zposition Zrotation Yrotation Xrotation 
	JOINT LeftUpLeg
	{
		OFFSET 0.103457 1.857819 10.548500
		CHANNELS 3 Zrotation Yrotation Xrotation
		JOINT LeftLeg
		{
			OFFSET 43.500000 -0.000019 -0.000010
			CHANNELS 3 Zrotation Yrotation Xrotation
			JOINT LeftFoot
			{
				OFFSET 42.372196 0.000008 0.000000
				CHANNELS 3 Zrotation Yrotation Xrotation
				JOINT LeftToe
				{
					OFFSET 17.300003 0.000001 0.000006
					CHANNELS 3 Zrotation Yrotation Xrotation
					End Site
					{
						OFFSET 0.000000 0.000000 0.000000
					}
				}
			}
		}
	}
	JOINT RightUpLeg
	{
		OFFSET 0.103456 1.857821 -10.548498
		CHANNELS 3 Zrotation Yrotation Xrotation
		JOINT RightLeg
		{
			OFFSET 43.500046 -0.000031 0.000019
			CHANNELS 3 Zrotation Yrotation Xrotation
			JOINT RightFoot
			{
				OFFSET 42.372261 -0.000004 0.000021
				CHANNELS 3 Zrotation Yrotation Xrotation
				JOINT RightToe
				{
					OFFSET 17.300016 0.000003 0.000000
					CHANNELS 3 Zrotation Yrotation Xrotation
					End Site
					{
						OFFSET 0.000000 0.000000 0.000000
					}
				}
			}
		}
	}
	JOINT Spine
	{
		OFFSET 6.901967 -2.603733 -0.000002
		CHANNELS 3 Zrotation Yrotation Xrotation
		JOINT Spine1
		{
			OFFSET 12.588102 0.000004 -0.000004
			CHANNELS 3 Zrotation Yrotation Xrotation
			JOINT Spine2
			{
				OFFSET 12.343203 -0.000004 0.000000
				CHANNELS 3 Zrotation Yrotation Xrotation
				JOINT Neck
				{
					OFFSET 25.832895 -0.000011 0.000005
					CHANNELS 3 Zrotation Yrotation Xrotation
					JOINT Head
					{
						OFFSET 11.766605 0.000003 0.000008
						CHANNELS 3 Zrotation Yrotation Xrotation
						End Site
						{
							OFFSET 0.000000 0.000000 0.000000
						}
					}
				}
				JOINT LeftShoulder
				{
					OFFSET 19.745905 -1.480360 6.000111
					CHANNELS 3 Zrotation Yrotation Xrotation
					JOINT LeftArm
					{
						OFFSET 11.284124 0.000007 -0.000017
						CHANNELS 3 Zrotation Yrotation Xrotation
						JOINT LeftForeArm
						{
							OFFSET 33.000050 0.000003 0.000017
							CHANNELS 3 Zrotation Yrotation Xrotation
							JOINT LeftHand
							{
								OFFSET 25.200005 0.000010 0.000011
								CHANNELS 3 Zrotation Yrotation Xrotation
								End Site
								{
									OFFSET 0.000000 0.000000 0.000000
								}
							}
						}
					}
				}
				JOINT RightShoulder
				{
					OFFSET 19.746092 -1.480387 -6.000073
					CHANNELS 3 Zrotation Yrotation Xrotation
					JOINT RightArm
					{
						OFFSET 11.284132 -0.000045 -0.000015
						CHANNELS 3 Zrotation Yrotation Xrotation
						JOINT RightForeArm
						{
							OFFSET 33.000092 0.000031 0.000005
							CHANNELS 3 Zrotation Yrotation Xrotation
							JOINT RightHand
							{
								OFFSET 25.199797 0.000145 0.000419
								CHANNELS 3 Zrotation Yrotation Xrotation
								End Site
								{
									OFFSET 0.000000 0.000000 0.000000
								}
							}
						}
					}
				}
			}
		}
	}
}
MOTION
Frames: 7
Frame Time: 0.033333
-89.384148 87.902863 260.725098 96.568281 0.81735 -123.492607 145.886502 -9.955202 171.743987 -53.903419 3.265855 -2.178102 77.119283 0.611683 -3.232217 21.454555 0.003073 1e-06 -179.03647 -11.309909 -172.588676 -26.949579 -6.434195 2.024594 90.973393 -0.942345 1.934754 21.454558 -0.003112 -1.8e-05 7.567257 1.498275 1.018398 5.150457 2.949977 2.102723 4.832141 2.962768 2.084867 -3.737026 1.090913 5.268096 -1.813908 -3.535426 6.367618 -166.871985 -72.182587 -14.852499 -22.055924 53.858569 20.088648 -23.911365 -6.94937 0.604405 9.615352 -6.146848 35.291584 -176.08281 74.353999 5.394658 -10.569702 -50.517896 -30.780883 -35.501541 14.657951 -1.351671 9.622971 5.031219 -6.422436 
-86.562637 87.283989 255.625793 96.54945 0.947908 -124.968201 146.733746 -9.555796 171.656055 -38.182458 2.10972 -2.062109 75.546421 0.144863 -4.610901 21.454553 0.003088 -0.0 -173.885278 -10.422194 -174.615125 -24.659794 -5.206443 1.872468 92.276921 -0.832824 2.362517 21.45456 -0.003107 -1.6e-05 7.454851 1.398871 1.318103 4.930539 2.740688 2.694951 4.612434 2.75705 2.678355 -4.202778 0.148591 5.595865 -1.962012 -2.921273 6.093771 -166.772797 -70.855378 -14.957312 -17.44404 54.187101 23.913457 -18.109946 -5.676544 0.44953 11.131479 -3.867038 37.222045 -176.712717 74.540805 4.751387 -11.667159 -48.903605 -31.483351 -36.793608 14.841434 -1.394261 8.896236 5.849246 -7.315083 
-83.88517 86.694382 250.725906 96.058278 0.910634 -126.219 148.063434 -8.306308 172.465733 -22.815352 1.694508 -2.060601 73.221151 -0.700599 -7.127001 21.454551 0.003092 0.0 -169.204768 -9.205008 -176.468073 -22.400927 -4.659879 1.952943 92.742726 -0.803011 3.173915 21.45456 -0.003114 -1.8e-05 7.312786 1.246744 1.526581 4.646733 2.43166 3.102263 4.328825 2.450477 3.087539 -4.543333 -0.853994 6.001473 -2.179076 -2.32987 5.867614 -166.05351 -69.795033 -15.703218 -12.635461 54.857037 27.420534 -13.207004 -4.761035 0.349046 12.512359 -2.235282 40.377787 -177.53779 74.59419 3.906346 -12.697536 -47.430271 -31.766226 -37.429187 15.010978 -1.42079 8.024686 7.255445 -8.57344 
-81.308449 85.973488 246.095703 95.699768 0.932229 -126.953109 148.514827 -7.097902 173.964768 -13.086076 2.511886 -1.19351 72.10964 -0.722557 -4.952605 21.454558 0.003094 0.0 -165.679503 -8.391691 -176.575171 -21.772157 -5.148435 1.54284 92.600542 -0.37812 4.220807 21.454563 -0.003112 -1.8e-05 7.184104 1.152536 1.626504 4.3885 2.243116 3.295758 4.070714 2.263109 3.282166 -4.90661 -1.576258 6.368611 -2.132782 -1.988996 5.780564 -164.749682 -69.231276 -17.05445 -7.423344 55.780171 31.01857 -9.85938 -4.158445 0.292471 13.778599 -1.031534 43.969216 -178.390321 74.658366 3.033615 -13.423629 -46.539314 -31.151673 -37.521931 15.202082 -1.435491 7.236405 8.891953 -9.923199 
-78.612694 84.823959 241.475906 95.901778 1.104346 -127.207 148.100221 -6.606095 172.965156 -11.508616 2.359668 -2.441682 74.036635 -0.268615 -6.717735 21.45455 0.003081 -2e-06 -163.299332 -8.410204 -174.978969 -23.729501 -6.712614 0.588515 92.200211 0.465164 5.387227 21.454557 -0.003116 -1.6e-05 7.072252 1.160835 1.673923 4.165957 2.261254 3.388789 3.848193 2.281801 3.37508 -5.314028 -1.809154 6.521655 -1.774154 -1.857299 5.755643 -163.267107 -69.094419 -18.589886 -1.54967 56.456387 35.456574 -8.268937 -3.763328 0.261277 14.894648 0.299894 46.794196 -178.556417 74.553851 2.861579 -13.375482 -46.107834 -30.127756 -37.492995 15.466921 -1.451958 6.778683 10.501647 -10.832345 
-76.287811 84.027946 237.170502 95.311738 0.593812 -126.99241 147.115841 -5.344416 168.927517 -16.412142 2.441563 -1.921955 71.114174 0.053257 -4.065923 21.454551 0.003092 1e-06 -162.131779 -7.460405 -172.89904 -27.121399 -8.362546 -0.124691 90.26584 1.225432 6.224841 21.454551 -0.003102 -1.7e-05 6.993147 0.949211 1.633474 4.000501 1.841982 3.298832 3.682798 1.861995 3.287674 -5.456444 -1.65272 6.355623 -1.463345 -1.734061 5.625375 -162.117709 -69.076749 -19.779678 3.701029 56.569683 39.690321 -7.988785 -3.430084 0.238178 15.685005 1.911505 47.681069 -177.594399 73.975723 3.838588 -12.899144 -45.777263 -28.94863 -37.510091 15.728502 -1.469354 6.697797 11.889615 -10.925133 
-74.262863 83.807251 232.671799 94.005184 -0.867262 -126.186406 146.60915 -3.106198 166.176208 -21.984099 3.289398 0.400456 64.378392 -0.130525 0.444279 21.454555 0.003099 1e-06 -163.19427 -4.788497 -170.842074 -34.334562 -8.720627 -0.086853 83.836938 1.354483 5.177606 21.454553 -0.003102 -1.8e-05 6.982875 0.517412 1.478183 3.965841 0.984387 2.973131 3.648168 1.002461 2.967145 -5.103717 -1.504508 5.965109 -1.391161 -1.349263 5.240271 -161.513907 -68.914621 -20.406483 7.268064 56.229239 42.388031 -8.178618 -3.08884 0.215489 16.101073 3.429693 46.397588 -175.951287 73.065491 5.512636 -12.226165 -45.624055 -27.783633 -37.171532 15.80048 -1.465653 6.820388 13.000591 -10.254388 
